<?xml version="1.0" encoding="UTF-8"?>
<!DOCTYPE svg PUBLIC "-//W3C//DTD SVG 1.1//EN" "http://www.w3.org/Graphics/SVG/1.1/DTD/svg11.dtd">
<!-- Creator: CorelDRAW X7 -->
<svg xmlns="http://www.w3.org/2000/svg" xml:space="preserve" width="16.9029mm" height="16.9548mm" version="1.1" style="shape-rendering:geometricPrecision; text-rendering:geometricPrecision; image-rendering:optimizeQuality; fill-rule:evenodd; clip-rule:evenodd"
viewBox="0 0 154939 155415"
 xmlns:xlink="http://www.w3.org/1999/xlink">
 <defs>
  <style type="text/css">
   <![CDATA[
    .str0 {stroke:white;stroke-width:3880.15}
    .fil0 {fill:none}
    .fil1 {fill:white}
   ]]>
  </style>
 </defs>
 <g id="Camada_x0020_1">
  <metadata id="CorelCorpID_0Corel-Layer"/>
  <path class="fil0 str0" d="M134927 153400l-116027 4c-8426,0 -16959,-9306 -16959,-17953l0 -112726c0,-10943 8513,-20784 17257,-20784l115043 0c10878,-13 18621,9884 18619,20517l-2 112875"/>
  <circle class="fil1" cx="146959" cy="147434" r="7981"/>
  <g id="_2251701998608">
   <path class="fil1" d="M77401 38706c21844,0 39553,17708 39553,39551 0,21844 -17709,39553 -39553,39553 -21843,0 -39551,-17709 -39551,-39553 0,-21843 17708,-39551 39551,-39551zm0 9423c16639,0 30129,13491 30129,30130 0,16638 -13490,30129 -30129,30129 -16639,0 -30129,-13491 -30129,-30129 0,-16639 13490,-30130 30129,-30130z"/>
   <circle class="fil1" cx="77401" cy="78258" r="17184"/>
  </g>
 </g>
</svg>
