<?xml version="1.0" encoding="UTF-8"?>
<!DOCTYPE svg PUBLIC "-//W3C//DTD SVG 1.1//EN" "http://www.w3.org/Graphics/SVG/1.1/DTD/svg11.dtd">
<!-- Creator: CorelDRAW X7 -->
<svg xmlns="http://www.w3.org/2000/svg" xml:space="preserve" width="16.9029mm" height="16.9548mm" version="1.1" style="shape-rendering:geometricPrecision; text-rendering:geometricPrecision; image-rendering:optimizeQuality; fill-rule:evenodd; clip-rule:evenodd"
viewBox="0 0 154939 155415"
 xmlns:xlink="http://www.w3.org/1999/xlink">
 <defs>
  <style type="text/css">
   <![CDATA[
    .str0 {stroke:white;stroke-width:3880.15}
    .fil0 {fill:none}
    .fil1 {fill:white}
   ]]>
  </style>
 </defs>
 <g id="Camada_x0020_1">
  <metadata id="CorelCorpID_0Corel-Layer"/>
  <path class="fil0 str0" d="M134927 153400l-116027 4c-8426,0 -16959,-9306 -16959,-17953l0 -112726c0,-10943 8513,-20784 17257,-20784l115043 0c10878,-13 18621,9884 18619,20517l-2 112875"/>
  <circle class="fil1" cx="146959" cy="147434" r="7981"/>
  <g id="_2251701951728">
   <path class="fil1" d="M97910 38220l5432 0c967,0 1758,791 1758,1758l0 20958 11175 0c1065,0 1933,869 1933,1933l0 5082c0,1064 -868,1933 -1933,1933l-11175 0 0 45679c0,968 -791,1758 -1758,1758l-5432 0c-967,0 -1758,-790 -1758,-1758l0 -45679 -11176 0c-1066,0 -1934,-869 -1934,-1933l0 -5082c0,-1064 868,-1933 1934,-1933l11176 0 0 -20958c0,-967 791,-1758 1758,-1758z"/>
   <path class="fil1" d="M51437 117323l5432 0c968,0 1759,-791 1759,-1758l0 -20957 11174 0c1066,0 1934,-869 1934,-1934l0 -5081c0,-1065 -868,-1934 -1934,-1934l-11174 0 0 -45679c0,-968 -791,-1758 -1759,-1758l-5432 0c-967,0 -1758,790 -1758,1758l0 45679 -11176 0c-1065,0 -1934,869 -1934,1934l0 5081c0,1065 869,1934 1934,1934l11176 0 0 20957c0,967 791,1758 1758,1758z"/>
  </g>
 </g>
</svg>
