<?xml version="1.0" encoding="UTF-8"?>
<svg id="Camada_2" data-name="Camada 2" xmlns="http://www.w3.org/2000/svg" viewBox="0 0 160 41">
  <defs>
    <style>
      .cls-1 {
        fill: #fff;
      }

      .cls-1, .cls-2 {
        fill-rule: evenodd;
      }

      .cls-2 {
        fill: #b71918;
      }
    </style>
  </defs>
  <g id="Camada_1-2" data-name="Camada 1">
    <g>
      <path class="cls-2" d="M21.27,41h0c-3.69,0-7.15-.9-10.18-2.5h3.65c.79,0,1.55,.09,2.29,.26,1.38,.31,2.83,.45,4.24,.45s2.86-.14,4.24-.45c.74-.16,1.5-.26,2.29-.26h3.65c-3.02,1.59-6.49,2.5-10.18,2.5m0-41h0c-3.69,0-7.15,.91-10.18,2.5h3.65c.79,0,1.55-.09,2.29-.26,1.38-.31,2.83-.45,4.24-.45s2.86,.14,4.24,.45c.74,.16,1.5,.26,2.29,.26h3.65c-3.02-1.59-6.49-2.5-10.18-2.5m0,30.84h0c-3.34,0-6.65-.97-9.99-1.71-3.24-.72-6.42-.96-9.74-.96-.34-.81-.63-1.65-.86-2.51,4.88,0,8.13-.56,10.67-1.21-.18-.43-.34-.87-.46-1.32-2.78-.75-6.18-1.37-10.85-1.37-.05-.8-.06-1.87,0-2.52,4.66,0,8.07-.62,10.85-1.37,.12-.45,.28-.89,.46-1.32-2.54-.65-5.79-1.21-10.67-1.21,.23-.86,.52-1.7,.86-2.51,3.44,0,6.93-.24,10.31-.93,3.14-.64,6.18-1.73,9.42-1.73s6.28,1.09,9.42,1.73c3.37,.69,6.86,.93,10.31,.93,.34,.81,.63,1.65,.86,2.51-4.88,0-8.13,.56-10.67,1.21,.16,.37,.3,.76,.41,1.15h-5.83c-.95-1.42-2.61-2.36-4.5-2.36-2.96,0-5.36,2.31-5.36,5.17s2.4,5.17,5.36,5.17c1.89,0,3.55-.94,4.5-2.36h5.82c-.11,.39-.25,.78-.41,1.15,2.54,.65,5.78,1.21,10.67,1.21-.23,.86-.52,1.7-.86,2.51-3.32,0-6.5,.24-9.74,.96-3.33,.74-6.65,1.71-9.99,1.71M14.31,5.13h0c-2.22,.63-4.63,1.27-8.48,1.27-.77,.78-1.47,1.62-2.11,2.51,2.91,0,4.83,0,7.26-.17,2.42-.17,5.35-1,10.29-1s7.86,.84,10.29,1c2.42,.17,4.34,.17,7.26,.17-.63-.89-1.34-1.73-2.11-2.51-3.84,0-6.26-.64-8.48-1.27-2.32-.66-4.51-1.2-6.96-1.2s-4.64,.54-6.96,1.2m0,30.74c-2.22-.63-4.63-1.27-8.48-1.27-.77-.78-1.47-1.62-2.11-2.51,2.91,0,4.83,0,7.26,.17,2.42,.17,5.35,1,10.29,1s7.86-.84,10.29-1c2.42-.17,4.34-.17,7.26-.17-.63,.89-1.34,1.73-2.11,2.51-3.84,0-6.26,.64-8.48,1.27-2.32,.66-4.51,1.2-6.96,1.2s-4.64-.54-6.96-1.2"/>
      <path class="cls-1" d="M108.71,18.86v-1.98c0-.24-.21-.44-.46-.44h-3.73c-.25,0-.45-.2-.45-.45v-3.94c0-.24-.21-.43-.46-.43h-2.05c-.26,0-.46,.2-.46,.45v11.5c0,3.4,2.55,6.28,6.17,6.28h.98c.25,0,.46-.2,.46-.45v-1.98c0-.24-.2-.44-.45-.44h-.99c-1.98,0-3.21-1.6-3.21-3.42v-3.83c0-.24,.22-.45,.47-.45h3.73c.25,0,.45-.2,.45-.44"/>
      <path class="cls-1" d="M151.53,29.1h0c.87,.43,1.49,.75,2.52,.75,3.6,0,5.95-2.89,5.95-6.28v-1.08c0-3.4-2.32-6.28-5.95-6.28s-5.95,2.88-5.95,6.28v13.38c0,.24,.21,.43,.46,.43h2.04c.25,0,.46-.19,.46-.44,0-2.11,0-4.23,0-6.34,0-.42,.14-.59,.46-.44m-.46-5.32v-1.28c0-1.81,.99-3.41,2.98-3.41s2.99,1.6,2.99,3.41v1.08c0,1.82-.99,3.41-2.99,3.41-1.87,0-2.98-1.44-2.98-3.21"/>
      <path class="cls-1" d="M85.14,23.57h0v-1.08c0-3.4-2.32-6.28-5.95-6.28s-5.95,2.88-5.95,6.28v1.08c0,3.4,2.32,6.28,5.95,6.28s5.95-2.88,5.95-6.28m-2.96,0c0,1.81-1,3.41-2.99,3.41s-2.99-1.6-2.99-3.41v-1.08c0-1.81,1-3.41,2.99-3.41s2.99,1.6,2.99,3.41v1.08h0Z"/>
      <path class="cls-1" d="M127.31,29.56c.26,0,.46-.2,.46-.45v-6.62c0-1.81,1-3.41,2.99-3.41s2.98,1.6,2.98,3.41v6.62c0,.24,.21,.45,.46,.45h2.04c.26,0,.46-.2,.46-.45v-6.62c0-1.81,1-3.41,2.99-3.41s2.98,1.61,2.98,3.41v6.62c0,.24,.21,.45,.46,.45h2.04c.25,0,.46-.2,.46-.45v-6.62c0-3.4-2.32-6.28-5.95-6.28-1.81,0-2.95,.77-4.16,1.95-.16,.16-.45,.16-.62,0-1.2-1.18-2.34-1.96-4.16-1.96-3.63,0-5.95,2.87-5.95,6.28v6.62c0,.24,.21,.45,.46,.45h2.04Z"/>
      <path class="cls-1" d="M98.71,29.56c.26,0,.46-.2,.46-.45v-6.62c0-3.4-2.32-6.28-5.95-6.28s-5.95,2.88-5.95,6.28v6.62c0,.24,.21,.45,.46,.45h2.04c.25,0,.46-.19,.46-.44v-6.63c0-1.81,1-3.41,2.99-3.41s2.99,1.6,2.99,3.41v6.63c0,.24,.2,.44,.45,.44h2.05Z"/>
      <path class="cls-1" d="M69.5,15.99l1.47-1.42c.17-.17,.17-.46-.01-.62-1.69-1.43-3.65-2.2-5.92-2.2-5.19,0-9.39,4.05-9.39,9.05s4.2,9.05,9.39,9.05c2.28,0,4.24-.79,5.94-2.22,.18-.15,.16-.43,0-.59l-1.48-1.43c-.17-.17-.45-.14-.63,.01-1.09,.91-2.39,1.38-3.82,1.38-3.55,0-6.43-2.77-6.43-6.2s2.88-6.2,6.43-6.2c1.48,0,2.71,.5,3.85,1.4,.18,.14,.44,.14,.61-.01"/>
      <path class="cls-1" d="M113.74,24.81h0c-.09-.33,.14-.44,.45-.44h7.91c.25,0,.46-.2,.46-.45v-1.74c0-3.03-2.25-5.97-5.97-5.97-3.4,0-5.97,2.69-5.97,5.97v1.65c0,3.35,2.75,6.07,6.19,6.07h1.22c.25,0,.46-.19,.46-.44v-1.98c0-.24-.21-.45-.46-.45h-1.22c-1.28,0-2.68-.88-3.08-2.24m5.59-3.3h-5.67c.31-1.4,1.5-2.44,2.93-2.44s2.62,1.04,2.93,2.44h-.19Z"/>
    </g>
  </g>
</svg>