<?xml version="1.0" encoding="utf-8"?>
<!-- Generator: Adobe Illustrator 28.1.0, SVG Export Plug-In . SVG Version: 6.00 Build 0)  -->
<svg version="1.1" id="Camada_2_00000006706029333302551060000009343823398010613417_"
	 xmlns="http://www.w3.org/2000/svg" xmlns:xlink="http://www.w3.org/1999/xlink" x="0px" y="0px" viewBox="0 0 41.9 41"
	 style="enable-background:new 0 0 41.9 41;" xml:space="preserve">
<style type="text/css">
	.st0{fill-rule:evenodd;clip-rule:evenodd;fill:#B71918;}
</style>
<g id="Camada_1-2">
	<g>
		<path class="st0" d="M21.3,41L21.3,41c-3.7,0-7.1-0.9-10.2-2.5h3.6c0.8,0,1.5,0.1,2.3,0.3c1.4,0.3,2.8,0.5,4.2,0.5
			s2.9-0.1,4.2-0.5c0.7-0.2,1.5-0.3,2.3-0.3h3.6C28.4,40.1,25,41,21.3,41 M21.3,0L21.3,0c-3.7,0-7.1,0.9-10.2,2.5h3.6
			c0.8,0,1.5-0.1,2.3-0.3c1.4-0.3,2.8-0.5,4.2-0.5s2.9,0.1,4.2,0.5c0.7,0.2,1.5,0.3,2.3,0.3h3.6C28.4,0.9,25,0,21.3,0 M21.3,30.8
			L21.3,30.8c-3.3,0-6.6-1-10-1.7c-3.2-0.7-6.4-1-9.7-1c-0.3-0.8-0.6-1.6-0.9-2.5c4.9,0,8.1-0.6,10.7-1.2c-0.2-0.4-0.3-0.9-0.5-1.3
			C8.1,22.4,4.7,21.8,0,21.8C0,21,0,19.9,0,19.2c4.7,0,8.1-0.6,10.9-1.4c0.1-0.5,0.3-0.9,0.5-1.3c-2.5-0.6-5.8-1.2-10.7-1.2
			c0.2-0.9,0.5-1.7,0.9-2.5c3.4,0,6.9-0.2,10.3-0.9c3.1-0.6,6.2-1.7,9.4-1.7s6.3,1.1,9.4,1.7c3.4,0.7,6.9,0.9,10.3,0.9
			c0.3,0.8,0.6,1.6,0.9,2.5c-4.9,0-8.1,0.6-10.7,1.2c0.2,0.4,0.3,0.8,0.4,1.1h-5.8c-1-1.4-2.6-2.4-4.5-2.4c-3,0-5.4,2.3-5.4,5.2
			s2.4,5.2,5.4,5.2c1.9,0,3.5-0.9,4.5-2.4h5.8c-0.1,0.4-0.2,0.8-0.4,1.1c2.5,0.6,5.8,1.2,10.7,1.2c-0.2,0.9-0.5,1.7-0.9,2.5
			c-3.3,0-6.5,0.2-9.7,1C27.9,29.9,24.6,30.9,21.3,30.8 M14.3,5.1L14.3,5.1c-2.2,0.6-4.6,1.3-8.5,1.3C5.1,7.2,4.4,8,3.7,8.9
			c2.9,0,4.8,0,7.3-0.2c2.4-0.2,5.4-1,10.3-1s7.9,0.8,10.3,1c2.4,0.2,4.3,0.2,7.3,0.2c-0.6-0.9-1.3-1.7-2.1-2.5
			c-3.8,0-6.3-0.6-8.5-1.3c-2.3-0.7-4.5-1.2-7-1.2S16.6,4.5,14.3,5.1 M14.3,35.9c-2.2-0.6-4.6-1.3-8.5-1.3c-0.8-0.8-1.5-1.6-2.1-2.5
			c2.9,0,4.8,0,7.3,0.2c2.4,0.2,5.4,1,10.3,1s7.9-0.8,10.3-1c2.4-0.2,4.3-0.2,7.3-0.2c-0.6,0.9-1.3,1.7-2.1,2.5
			c-3.8,0-6.3,0.6-8.5,1.3c-2.3,0.7-4.5,1.2-7,1.2S16.6,36.5,14.3,35.9"/>
	</g>
</g>
</svg>
