<?xml version="1.0" encoding="UTF-8"?>
<svg id="Camada_2" data-name="Camada 2" xmlns="http://www.w3.org/2000/svg" viewBox="0 0 80.94 78.8">
  <defs>
    <style>
      .cls-1 {
        fill: #fff;
      }

      .cls-1, .cls-2, .cls-3, .cls-4 {
        fill-rule: evenodd;
      }

      .cls-2, .cls-5 {
        stroke-width: .23px;
      }

      .cls-2, .cls-5, .cls-6, .cls-3, .cls-4, .cls-7 {
        fill: #1d1d1b;
      }

      .cls-2, .cls-5, .cls-6, .cls-8, .cls-4, .cls-7 {
        stroke: #1d1d1b;
        stroke-miterlimit: 10;
      }

      .cls-6 {
        stroke-width: .71px;
      }

      .cls-8 {
        fill: none;
        stroke-width: 2px;
      }
    </style>
  </defs>
  <g id="Camada_1-2" data-name="Camada 1">
    <g>
      <path class="cls-1" d="m11.68,0h57.5c6.45,0,11.76,5.15,11.76,11.5v55.72c0,6.35-5.31,11.58-11.76,11.58H11.68c-6.45,0-11.68-5.23-11.68-11.58V11.5C0,5.15,5.23,0,11.68,0h0Z"/>
      <path class="cls-8" d="m19.36,46.2c-2.01,0-4.08.06-6.09.06.37-38.44,53-37.46,55.01,0-2.19,0-4.45,0-6.7.06"/>
      <line class="cls-6" x1="55" y1="32.19" x2="59.99" y2="26.16"/>
      <line class="cls-7" x1="25.21" y1="32.25" x2="20.15" y2="26.22"/>
      <line class="cls-7" x1="40.38" y1="17.81" x2="40.38" y2="24.76"/>
      <polygon class="cls-4" points="13.51 49.98 17.11 49.98 17.11 53.57 13.51 53.63 13.51 49.98"/>
      <rect class="cls-7" x="63.83" y="49.85" width="3.59" height="3.65"/>
      <path class="cls-2" d="m44.89,23.11l-1.64,7.55c-1.16,5.67-1.89,10.23-5,15.53l1.77,8.28,4.14-7.31c-1.34-6.03-.67-10.66,0-16.39l.73-7.68Zm-3.17,18.21l.61.12-.55,3.47.12,2.62-1.16,2.07-.55-2.31.97-2.62.55-3.35Z"/>
      <line class="cls-5" x1="43.85" y1="29.69" x2="46.29" y2="14.16"/>
      <path class="cls-3" d="m40.44,51.38c2.19,0,3.96,1.77,3.96,4.02s-1.77,3.96-3.9,3.96-3.96-1.77-3.96-3.96,1.77-4.02,3.9-4.02h0Z"/>
    </g>
  </g>
</svg>