<?xml version="1.0" encoding="UTF-8"?>
<!DOCTYPE svg PUBLIC "-//W3C//DTD SVG 1.1//EN" "http://www.w3.org/Graphics/SVG/1.1/DTD/svg11.dtd">
<!-- Creator: CorelDRAW X7 -->
<svg xmlns="http://www.w3.org/2000/svg" xml:space="preserve" width="16.9029mm" height="16.9548mm" version="1.1" style="shape-rendering:geometricPrecision; text-rendering:geometricPrecision; image-rendering:optimizeQuality; fill-rule:evenodd; clip-rule:evenodd"
viewBox="0 0 154939 155415"
 xmlns:xlink="http://www.w3.org/1999/xlink">
 <defs>
  <style type="text/css">
   <![CDATA[
    .str0 {stroke:white;stroke-width:3880.15}
    .str1 {stroke:#373435;stroke-width:1833.29}
    .str2 {stroke:#373435;stroke-width:698.482}
    .fil1 {fill:none}
    .fil2 {fill:#373435}
    .fil0 {fill:white}
   ]]>
  </style>
 </defs>
 <g id="Camada_x0020_1">
  <metadata id="CorelCorpID_0Corel-Layer"/>
  <circle class="fil0" cx="146959" cy="147434" r="7981"/>
  <path class="fil1 str0" d="M134927 153400l-116027 4c-8426,0 -16959,-9306 -16959,-17953l0 -112726c0,-10943 8513,-20784 17257,-20784l115043 0c10878,-13 18621,9884 18619,20517l-2 112875"/>
  <circle class="fil0 str1" cx="77400" cy="77572" r="29489"/>
  <circle class="fil2" cx="77399" cy="77572" r="17477"/>
  <rect class="fil0" x="74493" y="29357" width="5812" height="96430"/>
  <rect class="fil0" transform="matrix(6.70821E-014 -2.87528 1.37896 5.16685E-014 29184.2 80477.5)" width="2021" height="69930"/>
  <rect class="fil2 str2" transform="matrix(1.06978E-013 -2.87528 0.267798 2.01144E-014 92785 80482.3)" width="2021" height="69930"/>
  <rect class="fil2 str2" transform="matrix(1.06978E-013 -2.87528 0.267798 2.01144E-014 44202.4 80482.3)" width="2021" height="69930"/>
  <rect class="fil2 str2" x="74493" y="91997" width="5812" height="18727"/>
  <rect class="fil2 str2" x="74493" y="44427" width="5812" height="18727"/>
 </g>
</svg>
