<svg xmlns="http://www.w3.org/2000/svg" width="78.031" height="110.5" viewBox="0 0 78.031 110.5">
  <g id="Grafico_10" data-name="Grafico 10" transform="translate(-119.484 -1195.25)">
    <g id="Grupo_66" data-name="Grupo 66">
      <g id="União_1" data-name="União 1" transform="translate(121.25 1197.25)" fill="none" opacity="0.62">
        <path d="M3.063,12.5V7.438H-1.766V3.063H3.063V-2H7.438V3.063h4.828V7.438H7.438V12.5Z" stroke="none"/>
        <path d="M 6.437599658966064 11.50010013580322 L 6.437599658966064 6.437600135803223 L 11.26519966125488 6.437600135803223 L 11.26519966125488 4.062700271606445 L 6.437599658966064 4.062700271606445 L 6.437599658966064 -0.9997997879981995 L 4.062699794769287 -0.9997997879981995 L 4.062699794769287 4.062700271606445 L -0.765800416469574 4.062700271606445 L -0.765800416469574 6.437600135803223 L 4.062699794769287 6.437600135803223 L 4.062699794769287 11.50010013580322 L 6.437599658966064 11.50010013580322 M 7.437599658966064 12.50010013580322 L 3.062699556350708 12.50010013580322 L 3.062699556350708 7.437600135803223 L -1.765800356864929 7.437600135803223 L -1.765800356864929 3.062700271606445 L 3.062699556350708 3.062700271606445 L 3.062699556350708 -1.999799847602844 L 7.437599658966064 -1.999799847602844 L 7.437599658966064 3.062700271606445 L 12.26519966125488 3.062700271606445 L 12.26519966125488 7.437600135803223 L 7.437599658966064 7.437600135803223 L 7.437599658966064 12.50010013580322 Z" stroke="none" fill="#242424"/>
      </g>
      <g id="União_13" data-name="União 13" transform="translate(153.25 1197.25)" fill="none" opacity="0.62">
        <path d="M3.063,12.5V7.438H-1.766V3.063H3.063V-2H7.438V3.063h4.828V7.438H7.438V12.5Z" stroke="none"/>
        <path d="M 6.437599658966064 11.50010013580322 L 6.437599658966064 6.437600135803223 L 11.26519966125488 6.437600135803223 L 11.26519966125488 4.062700271606445 L 6.437599658966064 4.062700271606445 L 6.437599658966064 -0.9997997879981995 L 4.062699794769287 -0.9997997879981995 L 4.062699794769287 4.062700271606445 L -0.765800416469574 4.062700271606445 L -0.765800416469574 6.437600135803223 L 4.062699794769287 6.437600135803223 L 4.062699794769287 11.50010013580322 L 6.437599658966064 11.50010013580322 M 7.437599658966064 12.50010013580322 L 3.062699556350708 12.50010013580322 L 3.062699556350708 7.437600135803223 L -1.765800356864929 7.437600135803223 L -1.765800356864929 3.062700271606445 L 3.062699556350708 3.062700271606445 L 3.062699556350708 -1.999799847602844 L 7.437599658966064 -1.999799847602844 L 7.437599658966064 3.062700271606445 L 12.26519966125488 3.062700271606445 L 12.26519966125488 7.437600135803223 L 7.437599658966064 7.437600135803223 L 7.437599658966064 12.50010013580322 Z" stroke="none" fill="#242424"/>
      </g>
      <g id="União_14" data-name="União 14" transform="translate(185.25 1197.25)" fill="none" opacity="0.62">
        <path d="M3.063,12.5V7.438H-1.766V3.063H3.063V-2H7.438V3.063h4.828V7.438H7.438V12.5Z" stroke="none"/>
        <path d="M 6.437599658966064 11.50010013580322 L 6.437599658966064 6.437600135803223 L 11.26519966125488 6.437600135803223 L 11.26519966125488 4.062700271606445 L 6.437599658966064 4.062700271606445 L 6.437599658966064 -0.9997997879981995 L 4.062699794769287 -0.9997997879981995 L 4.062699794769287 4.062700271606445 L -0.765800416469574 4.062700271606445 L -0.765800416469574 6.437600135803223 L 4.062699794769287 6.437600135803223 L 4.062699794769287 11.50010013580322 L 6.437599658966064 11.50010013580322 M 7.437599658966064 12.50010013580322 L 3.062699556350708 12.50010013580322 L 3.062699556350708 7.437600135803223 L -1.765800356864929 7.437600135803223 L -1.765800356864929 3.062700271606445 L 3.062699556350708 3.062700271606445 L 3.062699556350708 -1.999799847602844 L 7.437599658966064 -1.999799847602844 L 7.437599658966064 3.062700271606445 L 12.26519966125488 3.062700271606445 L 12.26519966125488 7.437600135803223 L 7.437599658966064 7.437600135803223 L 7.437599658966064 12.50010013580322 Z" stroke="none" fill="#242424"/>
      </g>
    </g>
    <g id="Grupo_67" data-name="Grupo 67" transform="translate(0 32)">
      <g id="União_1-2" data-name="União 1" transform="translate(121.25 1197.25)" fill="none" opacity="0.62">
        <path d="M3.063,12.5V7.438H-1.766V3.063H3.063V-2H7.438V3.063h4.828V7.438H7.438V12.5Z" stroke="none"/>
        <path d="M 6.437599658966064 11.50010013580322 L 6.437599658966064 6.437600135803223 L 11.26519966125488 6.437600135803223 L 11.26519966125488 4.062700271606445 L 6.437599658966064 4.062700271606445 L 6.437599658966064 -0.9997997879981995 L 4.062699794769287 -0.9997997879981995 L 4.062699794769287 4.062700271606445 L -0.765800416469574 4.062700271606445 L -0.765800416469574 6.437600135803223 L 4.062699794769287 6.437600135803223 L 4.062699794769287 11.50010013580322 L 6.437599658966064 11.50010013580322 M 7.437599658966064 12.50010013580322 L 3.062699556350708 12.50010013580322 L 3.062699556350708 7.437600135803223 L -1.765800356864929 7.437600135803223 L -1.765800356864929 3.062700271606445 L 3.062699556350708 3.062700271606445 L 3.062699556350708 -1.999799847602844 L 7.437599658966064 -1.999799847602844 L 7.437599658966064 3.062700271606445 L 12.26519966125488 3.062700271606445 L 12.26519966125488 7.437600135803223 L 7.437599658966064 7.437600135803223 L 7.437599658966064 12.50010013580322 Z" stroke="none" fill="#242424"/>
      </g>
      <g id="União_13-2" data-name="União 13" transform="translate(153.25 1197.25)" fill="none" opacity="0.62">
        <path d="M3.063,12.5V7.438H-1.766V3.063H3.063V-2H7.438V3.063h4.828V7.438H7.438V12.5Z" stroke="none"/>
        <path d="M 6.437599658966064 11.50010013580322 L 6.437599658966064 6.437600135803223 L 11.26519966125488 6.437600135803223 L 11.26519966125488 4.062700271606445 L 6.437599658966064 4.062700271606445 L 6.437599658966064 -0.9997997879981995 L 4.062699794769287 -0.9997997879981995 L 4.062699794769287 4.062700271606445 L -0.765800416469574 4.062700271606445 L -0.765800416469574 6.437600135803223 L 4.062699794769287 6.437600135803223 L 4.062699794769287 11.50010013580322 L 6.437599658966064 11.50010013580322 M 7.437599658966064 12.50010013580322 L 3.062699556350708 12.50010013580322 L 3.062699556350708 7.437600135803223 L -1.765800356864929 7.437600135803223 L -1.765800356864929 3.062700271606445 L 3.062699556350708 3.062700271606445 L 3.062699556350708 -1.999799847602844 L 7.437599658966064 -1.999799847602844 L 7.437599658966064 3.062700271606445 L 12.26519966125488 3.062700271606445 L 12.26519966125488 7.437600135803223 L 7.437599658966064 7.437600135803223 L 7.437599658966064 12.50010013580322 Z" stroke="none" fill="#242424"/>
      </g>
      <g id="União_14-2" data-name="União 14" transform="translate(185.25 1197.25)" fill="none" opacity="0.62">
        <path d="M3.063,12.5V7.438H-1.766V3.063H3.063V-2H7.438V3.063h4.828V7.438H7.438V12.5Z" stroke="none"/>
        <path d="M 6.437599658966064 11.50010013580322 L 6.437599658966064 6.437600135803223 L 11.26519966125488 6.437600135803223 L 11.26519966125488 4.062700271606445 L 6.437599658966064 4.062700271606445 L 6.437599658966064 -0.9997997879981995 L 4.062699794769287 -0.9997997879981995 L 4.062699794769287 4.062700271606445 L -0.765800416469574 4.062700271606445 L -0.765800416469574 6.437600135803223 L 4.062699794769287 6.437600135803223 L 4.062699794769287 11.50010013580322 L 6.437599658966064 11.50010013580322 M 7.437599658966064 12.50010013580322 L 3.062699556350708 12.50010013580322 L 3.062699556350708 7.437600135803223 L -1.765800356864929 7.437600135803223 L -1.765800356864929 3.062700271606445 L 3.062699556350708 3.062700271606445 L 3.062699556350708 -1.999799847602844 L 7.437599658966064 -1.999799847602844 L 7.437599658966064 3.062700271606445 L 12.26519966125488 3.062700271606445 L 12.26519966125488 7.437600135803223 L 7.437599658966064 7.437600135803223 L 7.437599658966064 12.50010013580322 Z" stroke="none" fill="#242424"/>
      </g>
    </g>
    <g id="Grupo_68" data-name="Grupo 68" transform="translate(0 64)">
      <g id="União_1-3" data-name="União 1" transform="translate(121.25 1197.25)" fill="none" opacity="0.62">
        <path d="M3.063,12.5V7.438H-1.766V3.063H3.063V-2H7.438V3.063h4.828V7.438H7.438V12.5Z" stroke="none"/>
        <path d="M 6.437599658966064 11.50010013580322 L 6.437599658966064 6.437600135803223 L 11.26519966125488 6.437600135803223 L 11.26519966125488 4.062700271606445 L 6.437599658966064 4.062700271606445 L 6.437599658966064 -0.9997997879981995 L 4.062699794769287 -0.9997997879981995 L 4.062699794769287 4.062700271606445 L -0.765800416469574 4.062700271606445 L -0.765800416469574 6.437600135803223 L 4.062699794769287 6.437600135803223 L 4.062699794769287 11.50010013580322 L 6.437599658966064 11.50010013580322 M 7.437599658966064 12.50010013580322 L 3.062699556350708 12.50010013580322 L 3.062699556350708 7.437600135803223 L -1.765800356864929 7.437600135803223 L -1.765800356864929 3.062700271606445 L 3.062699556350708 3.062700271606445 L 3.062699556350708 -1.999799847602844 L 7.437599658966064 -1.999799847602844 L 7.437599658966064 3.062700271606445 L 12.26519966125488 3.062700271606445 L 12.26519966125488 7.437600135803223 L 7.437599658966064 7.437600135803223 L 7.437599658966064 12.50010013580322 Z" stroke="none" fill="#242424"/>
      </g>
      <g id="União_13-3" data-name="União 13" transform="translate(153.25 1197.25)" fill="none" opacity="0.62">
        <path d="M3.063,12.5V7.438H-1.766V3.063H3.063V-2H7.438V3.063h4.828V7.438H7.438V12.5Z" stroke="none"/>
        <path d="M 6.437599658966064 11.50010013580322 L 6.437599658966064 6.437600135803223 L 11.26519966125488 6.437600135803223 L 11.26519966125488 4.062700271606445 L 6.437599658966064 4.062700271606445 L 6.437599658966064 -0.9997997879981995 L 4.062699794769287 -0.9997997879981995 L 4.062699794769287 4.062700271606445 L -0.765800416469574 4.062700271606445 L -0.765800416469574 6.437600135803223 L 4.062699794769287 6.437600135803223 L 4.062699794769287 11.50010013580322 L 6.437599658966064 11.50010013580322 M 7.437599658966064 12.50010013580322 L 3.062699556350708 12.50010013580322 L 3.062699556350708 7.437600135803223 L -1.765800356864929 7.437600135803223 L -1.765800356864929 3.062700271606445 L 3.062699556350708 3.062700271606445 L 3.062699556350708 -1.999799847602844 L 7.437599658966064 -1.999799847602844 L 7.437599658966064 3.062700271606445 L 12.26519966125488 3.062700271606445 L 12.26519966125488 7.437600135803223 L 7.437599658966064 7.437600135803223 L 7.437599658966064 12.50010013580322 Z" stroke="none" fill="#242424"/>
      </g>
      <g id="União_14-3" data-name="União 14" transform="translate(185.25 1197.25)" fill="none" opacity="0.62">
        <path d="M3.063,12.5V7.438H-1.766V3.063H3.063V-2H7.438V3.063h4.828V7.438H7.438V12.5Z" stroke="none"/>
        <path d="M 6.437599658966064 11.50010013580322 L 6.437599658966064 6.437600135803223 L 11.26519966125488 6.437600135803223 L 11.26519966125488 4.062700271606445 L 6.437599658966064 4.062700271606445 L 6.437599658966064 -0.9997997879981995 L 4.062699794769287 -0.9997997879981995 L 4.062699794769287 4.062700271606445 L -0.765800416469574 4.062700271606445 L -0.765800416469574 6.437600135803223 L 4.062699794769287 6.437600135803223 L 4.062699794769287 11.50010013580322 L 6.437599658966064 11.50010013580322 M 7.437599658966064 12.50010013580322 L 3.062699556350708 12.50010013580322 L 3.062699556350708 7.437600135803223 L -1.765800356864929 7.437600135803223 L -1.765800356864929 3.062700271606445 L 3.062699556350708 3.062700271606445 L 3.062699556350708 -1.999799847602844 L 7.437599658966064 -1.999799847602844 L 7.437599658966064 3.062700271606445 L 12.26519966125488 3.062700271606445 L 12.26519966125488 7.437600135803223 L 7.437599658966064 7.437600135803223 L 7.437599658966064 12.50010013580322 Z" stroke="none" fill="#242424"/>
      </g>
    </g>
    <g id="Grupo_69" data-name="Grupo 69" transform="translate(0 96)">
      <g id="União_1-4" data-name="União 1" transform="translate(121.25 1197.25)" fill="none" opacity="0.62">
        <path d="M3.063,12.5V7.438H-1.766V3.063H3.063V-2H7.438V3.063h4.828V7.438H7.438V12.5Z" stroke="none"/>
        <path d="M 6.437599658966064 11.50010013580322 L 6.437599658966064 6.437600135803223 L 11.26519966125488 6.437600135803223 L 11.26519966125488 4.062700271606445 L 6.437599658966064 4.062700271606445 L 6.437599658966064 -0.9997997879981995 L 4.062699794769287 -0.9997997879981995 L 4.062699794769287 4.062700271606445 L -0.765800416469574 4.062700271606445 L -0.765800416469574 6.437600135803223 L 4.062699794769287 6.437600135803223 L 4.062699794769287 11.50010013580322 L 6.437599658966064 11.50010013580322 M 7.437599658966064 12.50010013580322 L 3.062699556350708 12.50010013580322 L 3.062699556350708 7.437600135803223 L -1.765800356864929 7.437600135803223 L -1.765800356864929 3.062700271606445 L 3.062699556350708 3.062700271606445 L 3.062699556350708 -1.999799847602844 L 7.437599658966064 -1.999799847602844 L 7.437599658966064 3.062700271606445 L 12.26519966125488 3.062700271606445 L 12.26519966125488 7.437600135803223 L 7.437599658966064 7.437600135803223 L 7.437599658966064 12.50010013580322 Z" stroke="none" fill="#242424"/>
      </g>
      <g id="União_13-4" data-name="União 13" transform="translate(153.25 1197.25)" fill="none" opacity="0.62">
        <path d="M3.063,12.5V7.438H-1.766V3.063H3.063V-2H7.438V3.063h4.828V7.438H7.438V12.5Z" stroke="none"/>
        <path d="M 6.437599658966064 11.50010013580322 L 6.437599658966064 6.437600135803223 L 11.26519966125488 6.437600135803223 L 11.26519966125488 4.062700271606445 L 6.437599658966064 4.062700271606445 L 6.437599658966064 -0.9997997879981995 L 4.062699794769287 -0.9997997879981995 L 4.062699794769287 4.062700271606445 L -0.765800416469574 4.062700271606445 L -0.765800416469574 6.437600135803223 L 4.062699794769287 6.437600135803223 L 4.062699794769287 11.50010013580322 L 6.437599658966064 11.50010013580322 M 7.437599658966064 12.50010013580322 L 3.062699556350708 12.50010013580322 L 3.062699556350708 7.437600135803223 L -1.765800356864929 7.437600135803223 L -1.765800356864929 3.062700271606445 L 3.062699556350708 3.062700271606445 L 3.062699556350708 -1.999799847602844 L 7.437599658966064 -1.999799847602844 L 7.437599658966064 3.062700271606445 L 12.26519966125488 3.062700271606445 L 12.26519966125488 7.437600135803223 L 7.437599658966064 7.437600135803223 L 7.437599658966064 12.50010013580322 Z" stroke="none" fill="#242424"/>
      </g>
      <g id="União_14-4" data-name="União 14" transform="translate(185.25 1197.25)" fill="none" opacity="0.62">
        <path d="M3.063,12.5V7.438H-1.766V3.063H3.063V-2H7.438V3.063h4.828V7.438H7.438V12.5Z" stroke="none"/>
        <path d="M 6.437599658966064 11.50010013580322 L 6.437599658966064 6.437600135803223 L 11.26519966125488 6.437600135803223 L 11.26519966125488 4.062700271606445 L 6.437599658966064 4.062700271606445 L 6.437599658966064 -0.9997997879981995 L 4.062699794769287 -0.9997997879981995 L 4.062699794769287 4.062700271606445 L -0.765800416469574 4.062700271606445 L -0.765800416469574 6.437600135803223 L 4.062699794769287 6.437600135803223 L 4.062699794769287 11.50010013580322 L 6.437599658966064 11.50010013580322 M 7.437599658966064 12.50010013580322 L 3.062699556350708 12.50010013580322 L 3.062699556350708 7.437600135803223 L -1.765800356864929 7.437600135803223 L -1.765800356864929 3.062700271606445 L 3.062699556350708 3.062700271606445 L 3.062699556350708 -1.999799847602844 L 7.437599658966064 -1.999799847602844 L 7.437599658966064 3.062700271606445 L 12.26519966125488 3.062700271606445 L 12.26519966125488 7.437600135803223 L 7.437599658966064 7.437600135803223 L 7.437599658966064 12.50010013580322 Z" stroke="none" fill="#242424"/>
      </g>
    </g>
  </g>
</svg>
