<svg xmlns="http://www.w3.org/2000/svg" width="64" height="86" viewBox="0 0 64 86">
  <g id="Grafico_3" data-name="Grafico 3" transform="translate(-1708.106 -3659.812)" opacity="0.62">
    <g id="Grupo_31" data-name="Grupo 31" transform="translate(1708.5 3659.5)">
      <g id="Elipse_87" data-name="Elipse 87" transform="translate(-0.394 0.312)" fill="none" stroke="#707070" stroke-width="1">
        <ellipse cx="8.5" cy="8" rx="8.5" ry="8" stroke="none"/>
        <ellipse cx="8.5" cy="8" rx="8" ry="7.5" fill="none"/>
      </g>
      <g id="Elipse_88" data-name="Elipse 88" transform="translate(23.606 0.312)" fill="none" stroke="#707070" stroke-width="1">
        <circle cx="8" cy="8" r="8" stroke="none"/>
        <circle cx="8" cy="8" r="7.5" fill="none"/>
      </g>
      <g id="Elipse_89" data-name="Elipse 89" transform="translate(46.606 0.312)" fill="none" stroke="#707070" stroke-width="1">
        <ellipse cx="8.5" cy="8" rx="8.5" ry="8" stroke="none"/>
        <ellipse cx="8.5" cy="8" rx="8" ry="7.5" fill="none"/>
      </g>
    </g>
    <g id="Grupo_32" data-name="Grupo 32" transform="translate(1708.5 3682.912)">
      <g id="Elipse_87-2" data-name="Elipse 87" transform="translate(-0.394 -0.1)" fill="none" stroke="#707070" stroke-width="1">
        <ellipse cx="8.5" cy="8" rx="8.5" ry="8" stroke="none"/>
        <ellipse cx="8.5" cy="8" rx="8" ry="7.5" fill="none"/>
      </g>
      <g id="Elipse_88-2" data-name="Elipse 88" transform="translate(23.606 -0.1)" fill="none" stroke="#707070" stroke-width="1">
        <circle cx="8" cy="8" r="8" stroke="none"/>
        <circle cx="8" cy="8" r="7.5" fill="none"/>
      </g>
      <g id="Elipse_89-2" data-name="Elipse 89" transform="translate(46.606 -0.1)" fill="none" stroke="#707070" stroke-width="1">
        <ellipse cx="8.5" cy="8" rx="8.5" ry="8" stroke="none"/>
        <ellipse cx="8.5" cy="8" rx="8" ry="7.5" fill="none"/>
      </g>
    </g>
    <g id="Grupo_33" data-name="Grupo 33" transform="translate(1708.5 3706.324)">
      <g id="Elipse_87-3" data-name="Elipse 87" transform="translate(-0.394 0.488)" fill="none" stroke="#707070" stroke-width="1">
        <ellipse cx="8.5" cy="8" rx="8.5" ry="8" stroke="none"/>
        <ellipse cx="8.5" cy="8" rx="8" ry="7.5" fill="none"/>
      </g>
      <g id="Elipse_88-3" data-name="Elipse 88" transform="translate(23.606 0.488)" fill="none" stroke="#707070" stroke-width="1">
        <circle cx="8" cy="8" r="8" stroke="none"/>
        <circle cx="8" cy="8" r="7.5" fill="none"/>
      </g>
      <g id="Elipse_89-3" data-name="Elipse 89" transform="translate(46.606 0.488)" fill="none" stroke="#707070" stroke-width="1">
        <ellipse cx="8.5" cy="8" rx="8.5" ry="8" stroke="none"/>
        <ellipse cx="8.5" cy="8" rx="8" ry="7.5" fill="none"/>
      </g>
    </g>
    <g id="Grupo_34" data-name="Grupo 34" transform="translate(1708.5 3729.736)">
      <g id="Elipse_87-4" data-name="Elipse 87" transform="translate(-0.394 0.076)" fill="none" stroke="#707070" stroke-width="1">
        <ellipse cx="8.5" cy="8" rx="8.5" ry="8" stroke="none"/>
        <ellipse cx="8.5" cy="8" rx="8" ry="7.5" fill="none"/>
      </g>
      <g id="Elipse_88-4" data-name="Elipse 88" transform="translate(23.606 0.076)" fill="none" stroke="#707070" stroke-width="1">
        <circle cx="8" cy="8" r="8" stroke="none"/>
        <circle cx="8" cy="8" r="7.5" fill="none"/>
      </g>
      <g id="Elipse_89-4" data-name="Elipse 89" transform="translate(46.606 0.076)" fill="none" stroke="#707070" stroke-width="1">
        <ellipse cx="8.5" cy="8" rx="8.5" ry="8" stroke="none"/>
        <ellipse cx="8.5" cy="8" rx="8" ry="7.5" fill="none"/>
      </g>
    </g>
  </g>
</svg>
