<svg xmlns="http://www.w3.org/2000/svg" width="287" height="51" viewBox="0 0 287 51">
  <g id="Grafico_6" data-name="Grafico 6" transform="translate(-9 -1732)" opacity="0.62">
    <g id="Grupo_16" data-name="Grupo 16" transform="translate(9 1732)">
      <g id="Elipse_17" data-name="Elipse 17" fill="none" stroke="#707070" stroke-width="1">
        <circle cx="6" cy="6" r="6" stroke="none"/>
        <circle cx="6" cy="6" r="5.5" fill="none"/>
      </g>
      <g id="Elipse_32" data-name="Elipse 32" transform="translate(157)" fill="none" stroke="#707070" stroke-width="1">
        <circle cx="6" cy="6" r="6" stroke="none"/>
        <circle cx="6" cy="6" r="5.5" fill="none"/>
      </g>
      <g id="Elipse_24" data-name="Elipse 24" transform="translate(79)" fill="none" stroke="#707070" stroke-width="1">
        <circle cx="6" cy="6" r="6" stroke="none"/>
        <circle cx="6" cy="6" r="5.5" fill="none"/>
      </g>
      <g id="Elipse_28" data-name="Elipse 28" transform="translate(236)" fill="none" stroke="#707070" stroke-width="1">
        <circle cx="6" cy="6" r="6" stroke="none"/>
        <circle cx="6" cy="6" r="5.5" fill="none"/>
      </g>
      <g id="Elipse_18" data-name="Elipse 18" transform="translate(20)" fill="none" stroke="#707070" stroke-width="1">
        <circle cx="6" cy="6" r="6" stroke="none"/>
        <circle cx="6" cy="6" r="5.5" fill="none"/>
      </g>
      <g id="Elipse_31" data-name="Elipse 31" transform="translate(177)" fill="none" stroke="#707070" stroke-width="1">
        <circle cx="6" cy="6" r="6" stroke="none"/>
        <circle cx="6" cy="6" r="5.5" fill="none"/>
      </g>
      <g id="Elipse_23" data-name="Elipse 23" transform="translate(98)" fill="none" stroke="#707070" stroke-width="1">
        <circle cx="6" cy="6" r="6" stroke="none"/>
        <circle cx="6" cy="6" r="5.5" fill="none"/>
      </g>
      <g id="Elipse_27" data-name="Elipse 27" transform="translate(256)" fill="none" stroke="#707070" stroke-width="1">
        <circle cx="6" cy="6" r="6" stroke="none"/>
        <circle cx="6" cy="6" r="5.5" fill="none"/>
      </g>
      <g id="Elipse_19" data-name="Elipse 19" transform="translate(39)" fill="none" stroke="#707070" stroke-width="1">
        <circle cx="6" cy="6" r="6" stroke="none"/>
        <circle cx="6" cy="6" r="5.5" fill="none"/>
      </g>
      <g id="Elipse_30" data-name="Elipse 30" transform="translate(197)" fill="none" stroke="#707070" stroke-width="1">
        <circle cx="6" cy="6" r="6" stroke="none"/>
        <circle cx="6" cy="6" r="5.5" fill="none"/>
      </g>
      <g id="Elipse_22" data-name="Elipse 22" transform="translate(118)" fill="none" stroke="#707070" stroke-width="1">
        <circle cx="6" cy="6" r="6" stroke="none"/>
        <circle cx="6" cy="6" r="5.5" fill="none"/>
      </g>
      <g id="Elipse_26" data-name="Elipse 26" transform="translate(275)" fill="none" stroke="#707070" stroke-width="1">
        <circle cx="6" cy="6" r="6" stroke="none"/>
        <circle cx="6" cy="6" r="5.5" fill="none"/>
      </g>
      <g id="Elipse_20" data-name="Elipse 20" transform="translate(59)" fill="none" stroke="#707070" stroke-width="1">
        <circle cx="6" cy="6" r="6" stroke="none"/>
        <circle cx="6" cy="6" r="5.5" fill="none"/>
      </g>
      <g id="Elipse_29" data-name="Elipse 29" transform="translate(216)" fill="none" stroke="#707070" stroke-width="1">
        <circle cx="6" cy="6" r="6" stroke="none"/>
        <circle cx="6" cy="6" r="5.5" fill="none"/>
      </g>
      <g id="Elipse_21" data-name="Elipse 21" transform="translate(138)" fill="none" stroke="#707070" stroke-width="1">
        <circle cx="6" cy="6" r="6" stroke="none"/>
        <circle cx="6" cy="6" r="5.5" fill="none"/>
      </g>
    </g>
    <g id="Grupo_15" data-name="Grupo 15" transform="translate(9 1751.673)">
      <g id="Elipse_33" data-name="Elipse 33" transform="translate(0 0.327)" fill="none" stroke="#707070" stroke-width="1">
        <circle cx="6" cy="6" r="6" stroke="none"/>
        <circle cx="6" cy="6" r="5.5" fill="none"/>
      </g>
      <g id="Elipse_34" data-name="Elipse 34" transform="translate(157 0.327)" fill="none" stroke="#707070" stroke-width="1">
        <circle cx="6" cy="6" r="6" stroke="none"/>
        <circle cx="6" cy="6" r="5.5" fill="none"/>
      </g>
      <g id="Elipse_35" data-name="Elipse 35" transform="translate(79 0.327)" fill="none" stroke="#707070" stroke-width="1">
        <circle cx="6" cy="6" r="6" stroke="none"/>
        <circle cx="6" cy="6" r="5.5" fill="none"/>
      </g>
      <g id="Elipse_45" data-name="Elipse 45" transform="translate(236 0.327)" fill="none" stroke="#707070" stroke-width="1">
        <circle cx="6" cy="6" r="6" stroke="none"/>
        <circle cx="6" cy="6" r="5.5" fill="none"/>
      </g>
      <g id="Elipse_36" data-name="Elipse 36" transform="translate(20 0.327)" fill="none" stroke="#707070" stroke-width="1">
        <circle cx="6" cy="6" r="6" stroke="none"/>
        <circle cx="6" cy="6" r="5.5" fill="none"/>
      </g>
      <g id="Elipse_37" data-name="Elipse 37" transform="translate(177 0.327)" fill="none" stroke="#707070" stroke-width="1">
        <circle cx="6" cy="6" r="6" stroke="none"/>
        <circle cx="6" cy="6" r="5.5" fill="none"/>
      </g>
      <g id="Elipse_38" data-name="Elipse 38" transform="translate(98 0.327)" fill="none" stroke="#707070" stroke-width="1">
        <circle cx="6" cy="6" r="6" stroke="none"/>
        <circle cx="6" cy="6" r="5.5" fill="none"/>
      </g>
      <g id="Elipse_46" data-name="Elipse 46" transform="translate(256 0.327)" fill="none" stroke="#707070" stroke-width="1">
        <circle cx="6" cy="6" r="6" stroke="none"/>
        <circle cx="6" cy="6" r="5.5" fill="none"/>
      </g>
      <g id="Elipse_39" data-name="Elipse 39" transform="translate(39 0.327)" fill="none" stroke="#707070" stroke-width="1">
        <circle cx="6" cy="6" r="6" stroke="none"/>
        <circle cx="6" cy="6" r="5.5" fill="none"/>
      </g>
      <g id="Elipse_40" data-name="Elipse 40" transform="translate(197 0.327)" fill="none" stroke="#707070" stroke-width="1">
        <circle cx="6" cy="6" r="6" stroke="none"/>
        <circle cx="6" cy="6" r="5.5" fill="none"/>
      </g>
      <g id="Elipse_41" data-name="Elipse 41" transform="translate(118 0.327)" fill="none" stroke="#707070" stroke-width="1">
        <circle cx="6" cy="6" r="6" stroke="none"/>
        <circle cx="6" cy="6" r="5.5" fill="none"/>
      </g>
      <g id="Elipse_47" data-name="Elipse 47" transform="translate(275 0.327)" fill="none" stroke="#707070" stroke-width="1">
        <circle cx="6" cy="6" r="6" stroke="none"/>
        <circle cx="6" cy="6" r="5.5" fill="none"/>
      </g>
      <g id="Elipse_42" data-name="Elipse 42" transform="translate(59 0.327)" fill="none" stroke="#707070" stroke-width="1">
        <circle cx="6" cy="6" r="6" stroke="none"/>
        <circle cx="6" cy="6" r="5.5" fill="none"/>
      </g>
      <g id="Elipse_44" data-name="Elipse 44" transform="translate(216 0.327)" fill="none" stroke="#707070" stroke-width="1">
        <circle cx="6" cy="6" r="6" stroke="none"/>
        <circle cx="6" cy="6" r="5.5" fill="none"/>
      </g>
      <g id="Elipse_43" data-name="Elipse 43" transform="translate(138 0.327)" fill="none" stroke="#707070" stroke-width="1">
        <circle cx="6" cy="6" r="6" stroke="none"/>
        <circle cx="6" cy="6" r="5.5" fill="none"/>
      </g>
    </g>
    <g id="Grupo_14" data-name="Grupo 14" transform="translate(9 1771.346)">
      <g id="Elipse_48" data-name="Elipse 48" transform="translate(0 -0.346)" fill="none" stroke="#707070" stroke-width="1">
        <circle cx="6" cy="6" r="6" stroke="none"/>
        <circle cx="6" cy="6" r="5.5" fill="none"/>
      </g>
      <g id="Elipse_49" data-name="Elipse 49" transform="translate(157 -0.346)" fill="none" stroke="#707070" stroke-width="1">
        <circle cx="6" cy="6" r="6" stroke="none"/>
        <circle cx="6" cy="6" r="5.5" fill="none"/>
      </g>
      <g id="Elipse_50" data-name="Elipse 50" transform="translate(79 -0.346)" fill="none" stroke="#707070" stroke-width="1">
        <circle cx="6" cy="6" r="6" stroke="none"/>
        <circle cx="6" cy="6" r="5.5" fill="none"/>
      </g>
      <g id="Elipse_60" data-name="Elipse 60" transform="translate(236 -0.346)" fill="none" stroke="#707070" stroke-width="1">
        <circle cx="6" cy="6" r="6" stroke="none"/>
        <circle cx="6" cy="6" r="5.5" fill="none"/>
      </g>
      <g id="Elipse_51" data-name="Elipse 51" transform="translate(20 -0.346)" fill="none" stroke="#707070" stroke-width="1">
        <circle cx="6" cy="6" r="6" stroke="none"/>
        <circle cx="6" cy="6" r="5.5" fill="none"/>
      </g>
      <g id="Elipse_52" data-name="Elipse 52" transform="translate(177 -0.346)" fill="none" stroke="#707070" stroke-width="1">
        <circle cx="6" cy="6" r="6" stroke="none"/>
        <circle cx="6" cy="6" r="5.5" fill="none"/>
      </g>
      <g id="Elipse_53" data-name="Elipse 53" transform="translate(98 -0.346)" fill="none" stroke="#707070" stroke-width="1">
        <circle cx="6" cy="6" r="6" stroke="none"/>
        <circle cx="6" cy="6" r="5.5" fill="none"/>
      </g>
      <g id="Elipse_61" data-name="Elipse 61" transform="translate(256 -0.346)" fill="none" stroke="#707070" stroke-width="1">
        <circle cx="6" cy="6" r="6" stroke="none"/>
        <circle cx="6" cy="6" r="5.5" fill="none"/>
      </g>
      <g id="Elipse_54" data-name="Elipse 54" transform="translate(39 -0.346)" fill="none" stroke="#707070" stroke-width="1">
        <circle cx="6" cy="6" r="6" stroke="none"/>
        <circle cx="6" cy="6" r="5.5" fill="none"/>
      </g>
      <g id="Elipse_55" data-name="Elipse 55" transform="translate(197 -0.346)" fill="none" stroke="#707070" stroke-width="1">
        <circle cx="6" cy="6" r="6" stroke="none"/>
        <circle cx="6" cy="6" r="5.5" fill="none"/>
      </g>
      <g id="Elipse_56" data-name="Elipse 56" transform="translate(118 -0.346)" fill="none" stroke="#707070" stroke-width="1">
        <circle cx="6" cy="6" r="6" stroke="none"/>
        <circle cx="6" cy="6" r="5.5" fill="none"/>
      </g>
      <g id="Elipse_62" data-name="Elipse 62" transform="translate(275 -0.346)" fill="none" stroke="#707070" stroke-width="1">
        <circle cx="6" cy="6" r="6" stroke="none"/>
        <circle cx="6" cy="6" r="5.5" fill="none"/>
      </g>
      <g id="Elipse_57" data-name="Elipse 57" transform="translate(59 -0.346)" fill="none" stroke="#707070" stroke-width="1">
        <circle cx="6" cy="6" r="6" stroke="none"/>
        <circle cx="6" cy="6" r="5.5" fill="none"/>
      </g>
      <g id="Elipse_59" data-name="Elipse 59" transform="translate(216 -0.346)" fill="none" stroke="#707070" stroke-width="1">
        <circle cx="6" cy="6" r="6" stroke="none"/>
        <circle cx="6" cy="6" r="5.5" fill="none"/>
      </g>
      <g id="Elipse_58" data-name="Elipse 58" transform="translate(138 -0.346)" fill="none" stroke="#707070" stroke-width="1">
        <circle cx="6" cy="6" r="6" stroke="none"/>
        <circle cx="6" cy="6" r="5.5" fill="none"/>
      </g>
    </g>
  </g>
</svg>
