<svg xmlns="http://www.w3.org/2000/svg" width="70.387" height="101.314" viewBox="0 0 70.387 101.314">
  <g id="Grafico_11" data-name="Grafico 11" transform="translate(-1714.458 -1757.722)" opacity="0.62">
    <path id="Caminho_1" data-name="Caminho 1" d="M1485.959,1980.116h9.065l-4.845,9.639Z" transform="translate(229.264 -221.894)" fill="none" stroke="#707070" stroke-width="1"/>
    <path id="Caminho_17" data-name="Caminho 17" d="M1485.959,1980.116h9.065l-4.845,9.639Z" transform="translate(229.264 -191.894)" fill="none" stroke="#707070" stroke-width="1"/>
    <path id="Caminho_20" data-name="Caminho 20" d="M1485.959,1980.116h9.065l-4.845,9.639Z" transform="translate(229.264 -161.894)" fill="none" stroke="#707070" stroke-width="1"/>
    <path id="Caminho_23" data-name="Caminho 23" d="M1485.959,1980.116h9.065l-4.845,9.639Z" transform="translate(229.264 -131.894)" fill="none" stroke="#707070" stroke-width="1"/>
    <path id="Caminho_13" data-name="Caminho 13" d="M1485.959,1980.116h9.065l-4.845,9.639Z" transform="translate(259.008 -221.894)" fill="none" stroke="#707070" stroke-width="1"/>
    <path id="Caminho_16" data-name="Caminho 16" d="M1485.959,1980.116h9.065l-4.845,9.639Z" transform="translate(259.008 -191.894)" fill="none" stroke="#707070" stroke-width="1"/>
    <path id="Caminho_19" data-name="Caminho 19" d="M1485.959,1980.116h9.065l-4.845,9.639Z" transform="translate(259.008 -161.894)" fill="none" stroke="#707070" stroke-width="1"/>
    <path id="Caminho_21" data-name="Caminho 21" d="M1485.959,1980.116h9.065l-4.845,9.639Z" transform="translate(259.008 -131.894)" fill="none" stroke="#707070" stroke-width="1"/>
    <path id="Caminho_14" data-name="Caminho 14" d="M1485.959,1980.116h9.065l-4.845,9.639Z" transform="translate(289.01 -221.894)" fill="none" stroke="#707070" stroke-width="1"/>
    <path id="Caminho_15" data-name="Caminho 15" d="M1485.959,1980.116h9.065l-4.845,9.639Z" transform="translate(289.01 -191.894)" fill="none" stroke="#707070" stroke-width="1"/>
    <path id="Caminho_18" data-name="Caminho 18" d="M1485.959,1980.116h9.065l-4.845,9.639Z" transform="translate(289.01 -161.894)" fill="none" stroke="#707070" stroke-width="1"/>
    <path id="Caminho_22" data-name="Caminho 22" d="M1485.959,1980.116h9.065l-4.845,9.639Z" transform="translate(289.01 -131.894)" fill="none" stroke="#707070" stroke-width="1"/>
  </g>
</svg>
